<svg version="1.1" xmlns="http://www.w3.org/2000/svg" xmlns:xlink="http://www.w3.org/1999/xlink" viewBox="0 0 375 375" width="64px" height="64px" xml:space="preserve">
	<path d="M135,161H30C13,161,0,175,0,192v104c0,17,13,30,30,30h104c17,0,30-13,30-30V192C166,175,152,161,135,161z M151,297c0,8-7,15-15,15H30c-8,0-15-7-15-15V192c0-8,7-15,15-15h104c8,0,15,7,15,15V297z"/>
	<path d="M372,161l-42-95c-3-7-9-13-17-16c-7-2-16-2-23,0l-95,42c-7,3-13,9-16,17c-2,7-2,16,0,23l42,95c3,7,9,13,17,16c3,1,7,2,11,2c4,0,8-0,12-2l95-42v0C372,195,379,177,372,161z M359,179c-1,3-4,7-8,8v0l-95,42c-3,1-8,1-12,0c-3-1-7-4-8-8l-42-95c-1-3-1-8-0-12s4-7,8-8l95-42c2-0,4-1,6-1c1,0,3,0,5,1c3,1,7,4,8,8l42,95C360,171,361,175,359,179z"/>
	<path d="M280,138c-3-2-8-1-11,0c-3,2-4,7-2,10c1,3,5,6,9,6c4,0,8-3,9-8C286,145,284,141,280,138z"/>
	<path d="M44,215c4,0,8-3,9-8c0-4-1-8-4-10c-3-2-8-1-11,0c-3,2-4,7-3,10C36,212,40,215,44,215z"/>
	<path d="M44,254c4,0,8-3,9-8c0-4-1-8-4-10c-3-2-8-1-11,0c-3,2-4,7-3,10C36,252,40,254,44,254z"/>
	<path d="M49,276c-3-2-8-1-11,0c-3,2-4,7-3,10c1,4,5,6,9,6c4,0,8-3,9-8C55,282,53,278,49,276z"/>
	<path d="M121,215c4,0,8-3,9-7c0-4-0-8-4-10c-3-2-8-1-11,0c-3,2-4,7-2,10C113,212,117,215,121,215z"/>
	<path d="M127,236c-3-2-8-1-11,0c-3,2-4,6-2,10c1,4,5,6,9,6c4,0,8-3,9-8C132,242,130,238,127,236z"/>
	<path d="M127,276c-3-2-8-1-11,0c-3,2-4,7-2,10c1,3,5,6,9,6c4,0,8-3,9-8C132,282,130,278,127,276z"/>
</svg>
