<svg version="1" xmlns="http://www.w3.org/2000/svg" xmlns:xlink="http://www.w3.org/1999/xlink" viewBox="0 0 297 297" xml:space="preserve">
	<path d="M119,51l-1,21c-0,1,0,3,2,4c1,1,3,1,4,0l20-8
		l20,8c0,0,1,0,1,0c1,0,2-0,2-0c1-1,2-2,2-4
		l-1-21l14-16c1-1,1-3,0-4c-0-1-1-2-3-3l-21-5
		L149,2C148,0,146,0,144,0c-1,0-3,0-4,2l-11,18l-21,5
		c-1,0-3,1-3,3c-0,1-0,3,0,4L119,51z"/>
	<path d="M288,177h-71V97c0-3-3-6-6-6H87c-3,0-6,3-6,6v45H8
		c-3,0-6,3-6,6v140c0,3,3,6,6,6h280c3,0,6-3,6-6V184
		C295,181,292,177,288,177z M74,239c0,4-3,7-7,7H54v6H67
		c4,0,7,3,7,7c0,4-3,7-7,7H46c-4,0-7-3-7-7v-21
		c0-4,3-7,7-7h13v-7H46c-4,0-7-3-7-7s3-7,7-7H67
		c4,0,7,3,7,7V239z M155,166c0,4-3,7-7,7s-7-3-7-7v-24
		h-1c-4,0-7-3-7-7c0-4,3-7,7-7h9c4,0,7,3,7,7V166z
		 M259,261c0,4-3,7-7,7h-20c-4,0-7-3-7-7c0-4,3-7,7-7h13
		v-6h-13c-4,0-7-3-7-7c0-4,3-7,7-7h13v-7h-13
		c-4,0-7-3-7-7s3-7,7-7h20c4,0,7,3,7,7V261z"/>
</svg>
